<?xml version="1.0" encoding="utf-8"?>
<!-- Generator: Adobe Illustrator 23.0.5, SVG Export Plug-In . SVG Version: 6.00 Build 0)  -->
<svg version="1.1" id="Capa_1" xmlns="http://www.w3.org/2000/svg" xmlns:xlink="http://www.w3.org/1999/xlink" x="0px" y="0px"
	 viewBox="0 0 307.82 278.47" style="enable-background:new 0 0 307.82 278.47;" xml:space="preserve">
<style type="text/css">
	.st0{fill-rule:evenodd;clip-rule:evenodd;}
	.st1{stroke:#000000;stroke-miterlimit:10;}
	.st2{font-family:'TimesNewRomanPS-BoldMT';}
	.st3{font-size:35.3199px;}
</style>
<g>
	<path class="st0" d="M103.28,139.19c0.65-0.16,6.47-1.02,6.89-1.47c0.27-0.29,0.81-2.85,0.93-3.4c-0.77-1.23-1.17-0.78-1.17-3.14
		c-1.59-1.14-0.73-1.5-0.73-3.61c0.41-0.65,0.88-3.29,0.88-4.4V123l-0.38-3.94c-0.1-0.34,0.92-3.92,1.08-4.74
		c0.27-1.45,0.46-3.88,0.61-5.32c0.36-3.42,0.51-7.41,1.22-10.48c0.77-3.31,0.97-6.7,2.31-9.47c1.21-2.49,2.5-5.37,2.5-9.11v-0.16
		c0-0.51-2.69-1.44-3.23-1.57l2.82-6.5l0.11-0.42c0-0.39,0.59-1.9,0.73-2.36c0.33-1.04,0.31-1.39,0.88-1.73
		c0-1.84,1.2-6.87,1.79-8.14c0.55-1.18,0.63-2.92,1.49-3.43c1.06-0.63,1.72-1.22,2.91-1.91c0.61-0.36,1.11-0.43,1.61-0.79
		c0.49-0.36,0.93-0.59,1.52-0.89c1.09-0.56,2.23-1.05,3.32-1.47c1.1-0.43,2.51-0.78,3.65-1.12c0.4-0.12,1.55-0.34,1.85-0.53
		c0.06-0.04,1.23-1.03,1.23-1.04l-0.44,0.01c0.1-1.34,1.32-1.78,1.32-2.53v-0.31c0-0.57-1.02-0.79-1.61-0.79
		c-0.53-0.86-0.97-0.8-1.42-1.93c-0.18-0.46-0.78-1.98-0.78-2.47c0-1.05,0.23-1.53,0.07-2.43c-0.21-1.13-0.36-0.91-0.36-2.29
		l-0.18,0.02l-0.24-2.21c-0.07-1.85-0.08-2.37-0.02-4.42c0.04-1.51,1.77-2.45,1.77-2.98v-0.63h0.44v-0.31h0.88v-0.63
		c0.93-0.27,1.17-1.84,2.2-1.57v-0.63h0.44c0.48,0,0.39-0.47,1.17-0.47h1.03v-0.31h0.73c0.23,0,0.98-0.48,2.2-0.47
		c0.94,0.01,1.43-0.16,2.49-0.16v0.31h0.59c0.54,0,0.34,0.47,0.88,0.47h0.73l0.14,0.48c1.68,0.04,2.06,1.38,3.09,2.04
		c1.87,1.19-0.02,3.15,1.61,3.62v1.73c0,0.72,0.44,0.89,0.44,1.89v5.03c0,0.67-0.73,1.73-0.73,2.83v0.94h-0.29l-0.06-0.64
		l-0.15,0.01v2.2l-0.38,3.3v0.63h0.29v0.63c0.83,1.21,2.93,0.9,2.93,4.56c0.8,0.57,0.51,0.72,1.62,1.26
		c0.59,0.29,1.34,0.63,1.93,0.92c1.19,0.58,2.65,1.34,3.88,1.82c0.52,0.2,3.2,1.76,3.62,2.1c1.14,0.92,2.03,1.68,3.17,2.58
		c1.47,1.16,4.72,15.02,4.72,18.68l1.78,4.01l-0.17,0.04l-0.87,0.19l0,0.79c0,2.28,0.94,4.77,1.16,6.61
		c0.19,1.54,0.54,1.55,0.6,3.29c0.03,0.92,0.59,2.74,0.59,3.3v0.79l-0.05,8.33l0.05,1.26l-0.17,2.83c-0.65,1.08-0.57,5.29-0.57,7.23
		c0.01,1.36-0.01,2.73,0,4.09c0.01,1.6-0.59,1.78-0.59,3.3v0.16l0.34,5.97c-0.01,0.65-0.86,4.23-1.08,4.55
		c-1.21,1.75-1.04,1.4-2.93,2.36c-0.6,0.96-1.59,1.41-3.08,1.41v-0.63v-0.47c-0.46,0.18-0.43,0.27-0.44,0.94
		c-0.45-0.05-0.59-0.14-0.59-0.63c0-0.36,0.44-0.51,0.59-0.94h0.73l0.18-1.75c-0.08-0.39-0.03,0.15-0.03-0.45
		c0-0.89,0.44-1.14,0.44-2.2h0.29v-0.79c0-0.68-0.09-0.77-0.73-0.79v0.63l-0.16,2.2c-0.34,0.57-1.26,2.2-2.04,2.2
		c-0.18,0-0.59-0.24-0.59-0.63c0-0.06,0.56-1.43,0.88-1.57v-0.47c0-0.69,0.29-0.57,0.29-1.26v-2.83c0.98-0.42,0.73-3.58,1.91-4.24
		v-0.63h0.44v-0.79c0-0.44,0.42-0.56,0.73-0.79l0.47-4.24l0.27,0c0-2.33-0.16-7.55-0.82-9.01c-0.66-1.46-1.38-6.25-1.38-8.42
		c0-3.59-0.25-5.99-0.94-8.9c-0.34-1.42-0.71-2.56-1.09-3.86c-0.25-0.86-0.99-3.05-1.05-3.75c-1.31-0.12-1.25-2.83-2.2-2.83
		c-0.29,0-0.73,2.18-0.85,2.55c-0.27,0.87-0.57,1.5-0.98,2.25c-0.33,0.6-1.16,4.6-1.24,5.43c-0.17,1.76-0.18,4.69-0.42,6.31
		c-0.21,1.43,0.41,4.3,0.41,6.09v0.63c0,1.94-0.31,4.57-1.91,4.71l0.18,2.04l-0.03,0.63c0,1.25-0.73,0.55-0.73,1.73v0.47h-0.29v0.31
		c0.03,1.24,0.73,2.2,0.73,3.61v0.16l-0.29,2.04l0.15,1.26l0.23,0.49l-0.12-1.75l0.03-0.63h0.44c0,0.78-0.21,0.9-0.15,1.57
		l0.73,7.07l0.2-1.1c0.65,0.55,2.15,5.65,2.15,7.22v0.31c0,1.18-0.59,2.47-0.59,3.46v0.63c0,1,0.29,1.2,0.29,2.2v0.16
		c0,3.06-0.23,4.3,0.5,7.01c0.3,1.13,1.02,5.41,1.11,6.51c0.21,2.58,0.45,4.23,0.44,7.38c0,2.1-0.11,5.57,0.73,6.91
		c-0.08,0.35-0.15,0.36-0.15,0.79c0,0.16,0.84,0.96,1.03,1.1l0.46,4.08l0.42,0v0.31l0.23-0.49c0.17,1.39,0.8,2.16,0.8,4.11v2.83
		h-0.29v0.63c0,1.15,0.77,3.75,1.17,4.4v1.41l0.43,0.19c0.07,2.88,0.37,4.93,0.01,8.14c-0.33,2.95-0.29,5.21-0.29,8.18l0.15,0.63
		c1.14,0.13,1.79,2.94,1.94,4.43l-0.62,0.76l-1.03,3.46l0,0.78l0.44-0.15l-0.14,0.47l1.1-0.01l0.22,2.21
		c1.27,4.67,1.64,9.87,2.05,14.93l2.5,0.09l17.46-0.25l-1.76-0.31c0.31-0.23,0.48-0.31,1.03-0.31l0.76-0.02l-0.47-0.92h0.29
		l0.02-0.88l2.01,0.5l0.32-0.09l-0.15-1.26h2.2v-0.94h0.88v0.31h0.88v0.79l0.76-0.07l-0.31-0.09v-0.94h0.44l0.01,0.75l0.73,0.19
		l-0.03,0.69l0.91-0.22v-1.1h0.88v-0.79l2.54-0.07l0.84-1.34h-1.03v-0.94h0.29v0.47h1.76v-0.79h0.88v-0.63h0.88v-0.79h-0.88
		c-0.34,0-0.44-0.11-0.44-0.47v-0.47h0.44v-0.94h0.44v-0.31l-1.03-1.26c-0.33,0.08-0.34,0.16-0.73,0.16h-1.32v-0.47h-4.25v-0.31
		h0.88v-0.47h-0.88c0.26-0.25,0.44-0.19,0.44-0.63v-0.47c0-0.66-2.31-0.63-2.93-0.63v-0.31h-0.44c0-0.01,0.13-0.15,0-0.47L185.35,0
		l-76.61,0.19L103.28,139.19z"/>
	<path class="st0" d="M146.02,232.36l8.07,0.16l2.35,0.04l4.84-0.2l0.44-0.18l0-0.29h-0.29v-0.31l0.32-0.09l-0.46-0.07V230
		l-0.17-2.35l-0.27,0l-0.51-2.65l0.24,0.29l0.27,0.01l0.08-0.34c0.07,1.05-0.06,1.89,0.8,2.38l0.84,3.11l0.92,1.77l-0.05-0.37
		l-0.1-0.58l-1.58-5.14l0.41-0.04v-0.63c0-0.49-0.27-0.91-0.44-1.26l-0.15-5.34l-0.8-3.13l-0.99-2.46l0.17-0.07h-0.44l0.15-0.13
		l-1.76-2.39c-0.24-0.48-1.03-1.22-1.03-1.57v-0.79c0-0.16,1.19-3.4,1.32-3.61c0-1.24,0.29-1.32,0.29-2.2
		c0-1.05-0.37-1.87-0.44-2.83l-0.55-4.25l-0.48,0.15l-0.27-0.79l-0.37-2.49l-0.26-0.46l0.16-0.05l-1.32-7.36l-1.17-4.04l0.24-0.07
		l0.43,1.89l0.44,0.93l0.23,0.03v-0.47l-0.29-0.94c-0.22-0.27-0.29-0.27-0.29-0.79v-1.1l0.15-3.93l-0.88-2.04
		c-0.13-0.16-1.12-2.6-1.18-2.98c-0.21-1.47-0.44-1.7-0.44-3.62l0.71,1.9l0.32-0.17c-0.26-0.58-0.6-1.58-0.79-2.3
		c-0.18-0.7-0.81-1.41-0.94-2.13c-0.38-2.04-0.83-2.89-1.37-4.66c-0.36-1.19-0.21-1.14-0.75-2.34c-0.33-0.74-0.53-1.36-0.7-2.24
		c-0.29-1.51-1.01-3.33-1.31-4.72l-0.25,0.34l-1.51-4.9c-1.33-1.5-1.52-4.24-2.64-5.97l-0.31,0.45l-0.47,5.04
		c-0.03,0.76,0.09,3.12,0.05,4.25c-0.05,1.49,0,2.62,0,4.08c-0.01,2.62,0.73,5.21,0.73,8.01c0,1.36-0.37,4.82-0.24,5.59
		c0.22,1.28,0.53,4.18,0.53,5.41c0,1.79-0.29,1.09,0.3,2.82c0.13,0.37,0.45,2.31,0.58,2.84c0.35,1.42,0.76,4.25,0.89,5.8
		c0.33,3.97,1.17,7.94,1.17,12.42v3.77c0,2.92-0.14,5.36-0.15,8.17c0,1.3,0.31,2.88,0.12,4.06c-0.18,1.13-0.71,1.36-0.71,3.33v0.31
		l0.54,8.79c-0.09,0.2,0.19,0.34,0.19,0.95c0,1.33-0.1,2.08-0.14,3.3C146.01,230.26,145.38,232.08,146.02,232.36z"/>
	<path class="st0" d="M101.12,195.67l-0.5,18.67c-4.23,0.31,0.26,1.74-3.16,2.04l-0.43,0.3c2.3,1.17,2.8,2.86,0.73,4.23
		c3.38,0.66,1.2,2.78,3.36,4.07c0.47,0,0.78,0.52,0.88,0.94h1.03v0.63l1.61,0l0.15,0.78h0.73l0.08,0.33l0.07-0.49
		c0.58,0.45,0.15,1.85-0.29,2.2c-0.06,0.09-0.44,1.73-0.44,1.89v0.47h0.29l0.29-1.26l0.55-0.95l0.18-0.94h0.44
		c0.04-0.56,0.3-1.88,0.73-2.04l-0.07,1.09l-0.31,2.67l0.17,0.02l0.09-0.71l0.71,0.34l1.46,0.2v0.31h-0.44v0.47h1.76v0.63
		c0.8,0,1.66,0,1.33,0.76l0.29,0.18h0.15h1.03l0.29-0.15l-0.14-0.47h0.59c0.22-0.44,0.24-0.63,0.88-0.63h0.73v0.31h0.59
		c0.56,0,0.05-0.05,0.44,0.16v-0.79h-1.03v-0.47l0.48-0.01l-0.18-1.09l0.6,0l-0.15-1.07l0.41-0.19l0.17-0.63l0.29-0.79l0.16-0.31
		l0.87-0.01l0.31-0.45c-1.98-0.02-1.24,0.14-1.54-1.53c-0.18-1-0.39-1.53-0.39-2.73v-2.04c0-5.23,3.67-5.16,3.67-5.81
		c0-0.79-0.29-1.1-0.29-1.89c0-0.31,0.21-0.38,0.44-0.47v-1.73h-0.19l0.01-10.37c-0.56,0.02-1.57,0.5-2.25,0.69
		c-0.66,0.19-1.96,0.25-2.59,0.37c-1.6,0.3-4.02,0.17-5.39,0.51v0.47c0,1.31-0.22,1.74-0.04,2.87c0.15,0.95,0.46,1.64,0.48,2.47
		c0.52,0.3,1.17,2.44,1.17,3.3h-0.29c-0.94-4.33-2.05-3.44-2.05-9.27C107.18,199.7,102.76,199.21,101.12,195.67z"/>
	<path class="st0" d="M122.99,98.02c-0.1-0.45-0.15-0.27-0.15-0.63c0-0.88,0.5-1.26,0.88-1.73c0.27-0.44,1.47-1.96,1.47-2.51v-0.16
		c0-1-0.67-2.96-1.32-3.14c0,2.89-1.74,5.52-2.17,7.73c-0.25,1.3-0.31,3.17-0.67,4.31c-0.46,1.45-0.82,2.14-1.35,3.42
		c-0.51,1.21-1.12,2.13-1.5,3.43c-0.38,1.31-1.11,2.56-1.32,3.62c-0.42,2.11-1.94,5.44-1.94,7.82v0.94c0,0.42,0.07,0.43,0.15,0.79
		h-0.44c0.39,0.87-0.24,1.16,0.73,0.94v0.47c1.21,0.11,1.86,2.1,2.05,3.46c0.2,1.41,1.03,3.67,1.03,4.4v1.89
		c0,0.88-1.47,1.24-1.47,1.89c0,2.91,1.59,1.7,3.33,3.03c0.8,0.6,2.77,3,3.12,3.1l-0.6-4.4l0.02-0.47h-0.29
		c0-0.89-0.22-1.89-0.43-2.53c-0.28-0.87-0.12-1.61-0.15-2.66c-0.04-1.15-0.74-3.07-0.74-4.86c0-0.84,0.46-1.43,0.44-1.73
		l-0.35-4.71l0.05-2.36c0-1.39,0.42-2.08,0.44-2.99c-0.5-0.14-0.73-0.43-0.73-1.1c0-0.36,0.63-0.59,1.03-0.63
		c0.12-0.56,0.29-0.74,0.29-1.41c0-0.68-0.88-0.51-0.88-2.04v-0.63c0-0.74,0.51-1.53,1.03-1.73v-0.79
		c-0.77-0.09-1.32-0.91-1.32-1.89c0-1.08,1.09-1.73,1.29-2.7C122.75,100.28,122.58,98.93,122.99,98.02z"/>
	<path class="st0" d="M125.33,210.68c0-1.86,2.58-12.74,3.08-13.51c0,2.25,0.09,4.69,0.01,6.92c-0.07,1.9-0.59,4.09-0.59,6.12
		c0.44,0.04,0.73,0.11,0.73,0.63v0.16c0,4.19-4.54,7.43-4.54,8.69c0,0.32,0.88,0.47,1.17,0.47c1.09,0,4.39-3,4.39-4.45v-0.79
		c0-0.69-0.29-0.57-0.29-1.26v-0.94c0-2.01,2.35-4.4,2.35-4.56c0-1.63-0.47-3.56-0.7-5.07c-0.26-1.67-1.21-3.27-1.21-4.83v-0.94
		l-0.59-0.32l-0.07-1.57l-0.18-0.04l-0.44,1.16l-0.05-1.43c-1.69,0-1.72,1.92-3.08,2.04l-0.16,0.62l-0.15-0.3l-0.99,0.36l-0.02,2.78
		c0,1.63-0.98,4.23-1.65,5.15c-0.94,1.29-0.5,0.76-0.88,2.52c-0.19,0.92-0.56,1.64-0.56,2.86c1.18,0.11,0.79,1.75,1.91,1.89
		c0-1.9,0.59-5.4,0.86-7.24c0.18-1.22,0.63-2.26,0.74-3.29c0.14-1.3-0.24-2.69,0.3-3.6l-1.48,15.41l-0.13,1.08h0.29L125.33,210.68z"
		/>
	<path class="st0" d="M158.06,199.68c0.08-0.35,0.15-0.36,0.15-0.79v-4.09h0.29v-2.2c0-0.72-0.93-0.44-1.03-1.41
		c-0.41-0.04-0.59,0-0.59-0.47c0-0.87-0.1-2.11-0.46-3.13c-0.46-1.3-0.33-1.76-0.42-3l0.43-0.19l0.01-0.28l-0.68-0.54l-0.64-0.87
		v0.47l-0.23-0.03l-0.44-0.93l-0.43-1.89l-0.24,0.07l1.17,4.04l1.32,7.36l-0.16,0.05l0.26,0.46l0.37,2.49l0.27,0.79l0.48-0.15
		L158.06,199.68z"/>
	<path class="st0" d="M107.69,106.97l0.04,2.04c0.33-0.08,0.34-0.16,0.73-0.16h0.59v-8.01l-1.14,0L107.69,106.97z"/>
	<path class="st0" d="M153.8,173.91l-0.06-2.2c0.05-0.38,0.01-0.18-0.09-0.63c0.72,0.28,0.83,1.79,1.91,1.89
		c-0.22-1.03-0.75-0.83-1.3-1.91c-0.21-0.42-0.84-1.76-1.05-2.02l-0.32,0.17l-0.71-1.9c0,1.92,0.23,2.15,0.44,3.62
		C152.68,171.31,153.67,173.75,153.8,173.91z"/>
	<path class="st0" d="M142.94,140.13c1.12,1.73,1.31,4.47,2.64,5.97v-0.47h-0.29l-0.81-3.17l-0.07-0.6l0.7,1.12l-0.26-1.28l0.29,0
		c-0.64-1.02-1.47-0.91-1.47-3.14v-0.63h-0.29v0.79l-0.39-0.51L142.94,140.13z"/>
	<path class="st0" d="M122.4,205.34c0.38-1.53,1.47-2.73,1.47-5.19v-2.04h-0.59l-1.09,7.24L122.4,205.34z"/>
	<path class="st0" d="M171.99,210.52l0.62-0.76c-0.15-1.49-0.8-4.3-1.94-4.43l-0.15-0.63c0,1.31-0.39,2.47,0.35,3.24
		C171.77,208.86,171.99,208.72,171.99,210.52z"/>
	<path class="st0" d="M161.58,218.85l-0.18-1.72l0.03-0.48h0.29v-0.47h-0.29v-1.41h-0.29v0.63l-0.17-0.63l-0.41,0.18l-0.01-0.66
		l0.39,0.37c0.04-0.82-0.48-1.49-0.97-1.63c0.29-1.35-0.65-1.67-1.61-2.36h-0.44l1.76,2.39l-0.15,0.13h0.44l-0.17,0.07l0.99,2.46
		L161.58,218.85z"/>
	<path class="st0" d="M126.09,82.31l-0.46,0l-1.31,6.25l0.24,0.09l1.59-3.39c-0.09-0.27-0.23-0.43-0.23-0.91l-0.03-0.32
		L126.09,82.31z"/>
	<path class="st0" d="M154.83,181.77c0.07-0.93,0.29-0.33,0.29-0.94v-0.47l0.48-0.25l-0.91-0.15l-0.01-1.17l0.33,0.61l0.26,0.02
		l0.18-0.94l0.13,0.62l0.27,0l-0.18-1.09l0.47-0.01l-1.47-2.04l-0.15,3.93v1.1C154.53,181.49,154.61,181.5,154.83,181.77z"/>
	<path class="st0" d="M124.94,155.63c0.5,1.06,0.85,1.75,1.13,3.04h0.29l-0.72-4.06l-1.04-2.54
		C124.6,153.32,124.54,154.79,124.94,155.63z"/>
	<path class="st0" d="M159.38,111.37c0,0.35,0.12,0.34,0.29,0.63l-0.18,0.62l1.06,0.01c0.04-0.49,0.15-0.56,0.15-1.1v-0.63
		c0-0.61-0.11-1.17-0.29-1.57l-0.98,0.56L159.38,111.37z"/>
	<path class="st0" d="M170.82,137.61v0.63c1.49,0,2.48-0.45,3.08-1.41h-2.79L170.82,137.61z"/>
	<path class="st0" d="M122.4,110.12c0.78-0.07,0.88-1.67,0.88-2.51c0-0.5-0.36-0.54-0.73-0.63c-0.12,0.27-0.35,1.11-0.29,1.57
		L122.4,110.12z"/>
	<polygon class="st0" points="172.58,217.28 172.37,215.07 171.26,215.08 171.4,214.6 170.96,214.75 170.97,213.98 170.8,215.23 
		171.32,216.14 171.55,216.18 171.55,215.86 171.85,215.86 172.37,216.43 	"/>
	<polygon class="st0" points="120.44,219.1 120.49,218.53 119.38,217.8 119.35,220.15 	"/>
	<path class="st0" d="M122.99,98.02c0.26-0.32,1.07-1.63,1.17-2.04h-0.44v-0.31c-0.38,0.47-0.88,0.85-0.88,1.73
		C122.84,97.75,122.89,97.57,122.99,98.02z"/>
	<path class="st0" d="M170.82,137.61l0.29-0.79v-0.31h-0.73c-0.15,0.43-0.59,0.58-0.59,0.94c0,0.49,0.14,0.58,0.59,0.63
		c0.01-0.67-0.02-0.77,0.44-0.94V137.61z"/>
	<path class="st0" d="M119.69,216.47l0.95,0.02v-0.94c0-0.48-0.17-0.43-0.6-0.48L119.69,216.47z"/>
	<path class="st0" d="M114.62,131.49c0.45,0,0.88-0.15,0.88-0.63c0-0.36-0.41-0.31-0.73-0.31c-0.26,0.7-0.59,0.12-0.59,0.63
		C114.18,131.39,114.38,131.49,114.62,131.49z"/>
	<polygon class="st0" points="153.95,45.85 153.95,45.22 153.65,45.22 153.65,44.59 153.48,44.9 153.21,44.91 153.13,44.57 
		152.93,45.54 	"/>
</g>
<text transform="matrix(0.9293 0 0 1 22.5189 263.9677)"><tspan x="0" y="0" class="st1 st2 st3">E</tspan><tspan x="23.56" y="0" class="st1 st2 st3">l regreso del Inka</tspan></text>
</svg>
