<?xml version="1.0" encoding="utf-8"?>
<!-- Generator: Adobe Illustrator 23.0.5, SVG Export Plug-In . SVG Version: 6.00 Build 0)  -->
<svg version="1.1" id="Capa_1" xmlns="http://www.w3.org/2000/svg" xmlns:xlink="http://www.w3.org/1999/xlink" x="0px" y="0px"
	 viewBox="0 0 880.5 621.69" style="enable-background:new 0 0 880.5 621.69;" xml:space="preserve">
<style type="text/css">
	.st0{fill-rule:evenodd;clip-rule:evenodd;stroke:#000000;stroke-width:0.5669;stroke-miterlimit:22.9256;}
	.st1{fill:#FFFFFF;}
	.st2{font-family:'Candara';}
	.st3{font-size:24.9458px;}
	.st4{fill-rule:evenodd;clip-rule:evenodd;fill:#FFFFFF;}
	.st5{font-family:'Leelawadee-Bold';}
	.st6{font-family:'Leelawadee';}
	.st7{font-size:17.6698px;}
</style>
<rect x="-0.72" y="0.28" class="st0" width="879.93" height="621.13"/>
<g>
	<text transform="matrix(1 0 0 1 391.9979 606.3839)"><tspan x="0" y="0" class="st1 st2 st3">l</tspan><tspan x="5.71" y="0" class="st1 st2 st3">ibro audible</tspan></text>
</g>
<g>
	<path class="st4" d="M411.12,288.83c0.64-0.16,6.39-1.01,6.81-1.45c0.27-0.28,0.8-2.81,0.92-3.36c-0.76-1.22-1.16-0.78-1.16-3.11
		c-1.57-1.13-0.73-1.48-0.73-3.57c0.4-0.64,0.87-3.25,0.87-4.35v-0.16l-0.37-3.89c-0.1-0.34,0.91-3.88,1.06-4.69
		c0.27-1.44,0.45-3.84,0.6-5.26c0.36-3.38,0.5-7.33,1.21-10.36c0.76-3.27,0.96-6.63,2.29-9.36c1.19-2.46,2.47-5.31,2.47-9.01v-0.16
		c0-0.5-2.66-1.42-3.19-1.55l2.79-6.42l0.11-0.41c0-0.38,0.58-1.88,0.73-2.33c0.33-1.02,0.3-1.37,0.87-1.71
		c0-1.82,1.18-6.8,1.77-8.05c0.54-1.16,0.62-2.89,1.47-3.4c1.05-0.62,1.71-1.2,2.88-1.89c0.61-0.35,1.1-0.43,1.59-0.79
		c0.48-0.35,0.92-0.58,1.5-0.88c1.07-0.55,2.2-1.04,3.28-1.46c1.08-0.42,2.48-0.77,3.61-1.11c0.4-0.12,1.53-0.34,1.83-0.52
		c0.06-0.04,1.21-1.01,1.22-1.02l-0.43,0.01c0.1-1.33,1.3-1.76,1.3-2.5v-0.31c0-0.56-1.01-0.78-1.6-0.78
		c-0.53-0.85-0.96-0.79-1.41-1.91c-0.18-0.45-0.77-1.95-0.77-2.44c0-1.04,0.23-1.51,0.07-2.4c-0.21-1.11-0.35-0.9-0.35-2.26
		l-0.18,0.02l-0.24-2.18c-0.07-1.83-0.08-2.34-0.02-4.37c0.04-1.49,1.75-2.42,1.75-2.94v-0.62h0.44v-0.31h0.87v-0.62
		c0.92-0.26,1.15-1.82,2.18-1.55v-0.62h0.44c0.47,0,0.38-0.47,1.16-0.47h1.02v-0.31h0.73c0.23,0,0.97-0.48,2.18-0.47
		c0.93,0.01,1.41-0.16,2.47-0.16v0.31h0.58c0.53,0,0.34,0.47,0.87,0.47h0.73l0.14,0.47c1.66,0.04,2.04,1.36,3.06,2.01
		c1.85,1.18-0.02,3.11,1.59,3.58v1.71c0,0.71,0.44,0.88,0.44,1.86v4.97c0,0.66-0.73,1.71-0.73,2.8v0.93h-0.29l-0.06-0.63l-0.15,0.01
		v2.17l-0.38,3.26v0.62h0.29v0.62c0.82,1.19,2.9,0.89,2.9,4.5c0.79,0.57,0.5,0.71,1.6,1.24c0.59,0.29,1.32,0.62,1.91,0.91
		c1.17,0.57,2.62,1.32,3.84,1.8c0.51,0.2,3.16,1.74,3.58,2.07c1.13,0.91,2,1.66,3.13,2.55c1.46,1.14,4.66,14.85,4.66,18.47
		l1.76,3.96l-0.17,0.04l-0.87,0.19l0,0.78c0,2.26,0.93,4.71,1.15,6.54c0.19,1.52,0.54,1.53,0.59,3.25c0.03,0.91,0.58,2.71,0.58,3.26
		v0.78l-0.05,8.23l0.05,1.24l-0.17,2.79c-0.65,1.07-0.57,5.23-0.56,7.15c0.01,1.35-0.01,2.7,0,4.04c0.01,1.59-0.58,1.76-0.58,3.26
		v0.15l0.34,5.9c-0.01,0.64-0.85,4.19-1.07,4.5c-1.19,1.73-1.03,1.38-2.89,2.34c-0.59,0.95-1.57,1.4-3.05,1.4v-0.62v-0.47
		c-0.45,0.18-0.42,0.27-0.44,0.93c-0.44-0.05-0.58-0.14-0.58-0.62c0-0.36,0.44-0.51,0.58-0.93h0.73l0.18-1.73
		c-0.08-0.39-0.03,0.15-0.03-0.44c0-0.88,0.43-1.13,0.43-2.17h0.29v-0.78c0-0.68-0.09-0.76-0.72-0.78v0.62l-0.16,2.17
		c-0.33,0.56-1.25,2.18-2.01,2.18c-0.18,0-0.58-0.24-0.58-0.62c0-0.06,0.56-1.42,0.87-1.55v-0.47c0-0.68,0.29-0.56,0.29-1.24v-2.8
		c0.97-0.42,0.72-3.54,1.89-4.2v-0.62h0.44v-0.78c0-0.44,0.42-0.56,0.73-0.78l0.46-4.19l0.26,0c0-2.31-0.16-7.46-0.82-8.91
		c-0.65-1.44-1.36-6.18-1.36-8.33c0-3.55-0.24-5.93-0.92-8.8c-0.33-1.4-0.7-2.53-1.08-3.81c-0.25-0.85-0.98-3.02-1.04-3.71
		c-1.3-0.12-1.24-2.8-2.18-2.8c-0.29,0-0.73,2.16-0.84,2.52c-0.27,0.86-0.56,1.48-0.97,2.22c-0.33,0.6-1.15,4.55-1.23,5.37
		c-0.17,1.74-0.18,4.63-0.42,6.24c-0.21,1.41,0.4,4.25,0.4,6.03v0.62c0,1.92-0.31,4.52-1.89,4.66l0.18,2.02l-0.03,0.63
		c0,1.24-0.73,0.54-0.73,1.71v0.47h-0.29v0.31c0.03,1.23,0.73,2.18,0.73,3.57v0.16l-0.29,2.02l0.14,1.24l0.23,0.49L468,270.2
		l0.03-0.63h0.44c0,0.78-0.21,0.89-0.15,1.55l0.73,6.99l0.2-1.08c0.64,0.54,2.12,5.58,2.12,7.14v0.31c0,1.17-0.58,2.45-0.58,3.42
		v0.62c0,0.99,0.29,1.18,0.29,2.17v0.16c0,3.02-0.23,4.26,0.49,6.93c0.3,1.11,1.01,5.35,1.1,6.43c0.21,2.55,0.45,4.18,0.44,7.3
		c0,2.08-0.11,5.5,0.73,6.84c-0.08,0.35-0.15,0.36-0.15,0.78c0,0.15,0.83,0.95,1.02,1.09l0.45,4.04l0.42,0v0.31l0.23-0.49
		c0.17,1.38,0.79,2.14,0.79,4.06v2.8h-0.29v0.62c0,1.14,0.76,3.71,1.16,4.35v1.4l0.42,0.18c0.07,2.85,0.36,4.87,0.01,8.04
		c-0.33,2.91-0.29,5.16-0.29,8.08l0.14,0.62c1.13,0.13,1.77,2.91,1.92,4.38l-0.61,0.75l-1.02,3.42l0,0.77l0.43-0.15l-0.14,0.47
		l1.09-0.01l0.21,2.19c1.25,4.62,1.62,9.76,2.03,14.76l2.47,0.09l17.26-0.25l-1.74-0.31c0.31-0.23,0.48-0.31,1.02-0.31l0.75-0.02
		l-0.46-0.91h0.29l0.02-0.87l1.99,0.49l0.32-0.09l-0.15-1.24h2.18v-0.93h0.87v0.31h0.87v0.78l0.75-0.07l-0.31-0.09v-0.93h0.44
		l0.01,0.75l0.72,0.19l-0.03,0.69l0.9-0.22v-1.09h0.87v-0.78l2.51-0.07l0.83-1.33h-1.02v-0.93h0.29v0.47h1.74v-0.78h0.87v-0.62h0.87
		v-0.78h-0.87c-0.33,0-0.44-0.11-0.44-0.47v-0.47h0.44v-0.93h0.43v-0.31l-1.02-1.24c-0.33,0.08-0.33,0.15-0.73,0.15h-1.31v-0.47
		h-4.21v-0.31h0.87v-0.47h-0.87c0.26-0.24,0.44-0.19,0.44-0.62v-0.47c0-0.65-2.29-0.62-2.89-0.62v-0.31h-0.44
		c0-0.01,0.12-0.15,0-0.47l-13.94-213.74l-75.74,0.19L411.12,288.83z"/>
	<path class="st4" d="M453.38,380.96l7.98,0.16l2.32,0.04l4.79-0.19l0.43-0.18l0-0.29h-0.29v-0.31l0.31-0.09l-0.46-0.07v-1.4
		l-0.17-2.33l-0.27,0l-0.51-2.62l0.24,0.28l0.27,0.01l0.08-0.33c0.07,1.04-0.06,1.87,0.79,2.35l0.83,3.07l0.91,1.75l-0.05-0.36
		l-0.1-0.57l-1.56-5.09l0.4-0.04v-0.62c0-0.48-0.27-0.9-0.44-1.24l-0.14-5.28l-0.79-3.09l-0.97-2.43l0.16-0.07h-0.44l0.15-0.13
		l-1.74-2.36c-0.23-0.47-1.02-1.2-1.02-1.55v-0.78c0-0.16,1.17-3.36,1.31-3.57c0-1.22,0.29-1.3,0.29-2.17c0-1.03-0.36-1.85-0.44-2.8
		l-0.54-4.2l-0.47,0.15l-0.27-0.78l-0.36-2.47l-0.26-0.46l0.15-0.05l-1.3-7.27l-1.16-3.99l0.24-0.07l0.42,1.87l0.43,0.92l0.23,0.03
		v-0.47l-0.29-0.93c-0.22-0.27-0.29-0.27-0.29-0.78v-1.09l0.14-3.88l-0.87-2.02c-0.13-0.16-1.11-2.57-1.16-2.95
		c-0.21-1.45-0.43-1.68-0.43-3.58l0.7,1.88l0.32-0.17c-0.26-0.58-0.59-1.56-0.78-2.27c-0.18-0.69-0.8-1.39-0.93-2.11
		c-0.38-2.02-0.82-2.86-1.36-4.6c-0.36-1.17-0.2-1.12-0.74-2.31c-0.33-0.73-0.53-1.35-0.69-2.21c-0.28-1.49-1-3.29-1.3-4.67
		l-0.25,0.34l-1.49-4.84c-1.32-1.49-1.5-4.19-2.61-5.9l-0.31,0.45l-0.46,4.98c-0.03,0.75,0.09,3.09,0.05,4.21
		c-0.05,1.47,0,2.59,0,4.03c-0.01,2.59,0.72,5.15,0.72,7.92c0,1.35-0.36,4.77-0.24,5.53c0.22,1.27,0.53,4.13,0.53,5.35
		c0,1.77-0.29,1.08,0.29,2.79c0.13,0.37,0.44,2.28,0.57,2.81c0.34,1.41,0.75,4.2,0.88,5.74c0.32,3.92,1.16,7.85,1.16,12.28v3.73
		c0,2.89-0.14,5.3-0.15,8.08c0,1.28,0.3,2.84,0.12,4.01c-0.18,1.11-0.7,1.35-0.7,3.29v0.31l0.54,8.69c-0.09,0.2,0.19,0.34,0.19,0.94
		c0,1.32-0.1,2.05-0.14,3.27C453.37,378.89,452.75,380.69,453.38,380.96z"/>
	<path class="st4" d="M408.99,344.68l-0.49,18.46c-4.18,0.3,0.26,1.72-3.13,2.02l-0.42,0.29c2.27,1.16,2.77,2.83,0.72,4.19
		c3.34,0.65,1.18,2.75,3.32,4.02c0.46,0,0.77,0.52,0.87,0.93h1.02v0.62l1.59,0l0.15,0.78h0.73l0.08,0.33l0.07-0.48
		c0.57,0.45,0.15,1.83-0.29,2.17c-0.05,0.09-0.44,1.71-0.44,1.86v0.47h0.29l0.29-1.24l0.55-0.94l0.18-0.92h0.44
		c0.04-0.55,0.3-1.85,0.73-2.02l-0.06,1.08l-0.31,2.64l0.17,0.02l0.09-0.7l0.7,0.34l1.45,0.2v0.31h-0.44v0.47h1.74v0.62
		c0.79,0,1.64,0,1.31,0.75l0.28,0.18h0.15h1.02l0.28-0.15l-0.14-0.47h0.58c0.21-0.43,0.23-0.62,0.87-0.62h0.73v0.31h0.58
		c0.55,0,0.05-0.05,0.44,0.16v-0.78h-1.02v-0.47l0.47-0.01l-0.18-1.08l0.59,0l-0.15-1.06l0.41-0.19l0.16-0.62l0.29-0.78l0.16-0.3
		l0.86-0.01l0.31-0.45c-1.95-0.02-1.22,0.14-1.52-1.52c-0.18-0.98-0.38-1.51-0.38-2.7v-2.02c0-5.17,3.63-5.1,3.63-5.75
		c0-0.78-0.29-1.09-0.29-1.86c0-0.31,0.21-0.38,0.44-0.47v-1.71h-0.19l0.01-10.25c-0.56,0.01-1.55,0.49-2.22,0.68
		c-0.65,0.19-1.94,0.25-2.56,0.36c-1.58,0.29-3.97,0.17-5.33,0.51v0.47c0,1.3-0.22,1.72-0.04,2.84c0.15,0.94,0.45,1.62,0.47,2.45
		c0.52,0.29,1.16,2.41,1.16,3.26h-0.29c-0.93-4.28-2.03-3.4-2.03-9.17C414.97,348.67,410.61,348.18,408.99,344.68z"/>
	<path class="st4" d="M430.61,248.13c-0.1-0.44-0.15-0.27-0.15-0.62c0-0.87,0.49-1.24,0.87-1.71c0.27-0.44,1.45-1.94,1.45-2.49
		v-0.16c0-0.99-0.66-2.92-1.31-3.11c0,2.86-1.72,5.46-2.14,7.65c-0.25,1.29-0.31,3.14-0.67,4.26c-0.46,1.43-0.81,2.12-1.34,3.38
		c-0.5,1.2-1.11,2.11-1.48,3.39c-0.38,1.29-1.09,2.53-1.3,3.57c-0.42,2.09-1.92,5.38-1.92,7.73v0.93c0,0.42,0.07,0.43,0.14,0.78
		h-0.44c0.38,0.86-0.24,1.15,0.73,0.93v0.47c1.2,0.11,1.84,2.07,2.03,3.42c0.2,1.4,1.02,3.63,1.02,4.35v1.86
		c0,0.87-1.45,1.23-1.45,1.86c0,2.88,1.57,1.68,3.3,2.99c0.79,0.6,2.74,2.97,3.09,3.07l-0.6-4.35l0.02-0.47h-0.29
		c0-0.88-0.22-1.87-0.42-2.5c-0.28-0.86-0.12-1.59-0.15-2.63c-0.04-1.14-0.73-3.03-0.73-4.81c0-0.83,0.46-1.41,0.44-1.71l-0.34-4.66
		l0.05-2.34c0-1.38,0.42-2.05,0.44-2.95c-0.49-0.14-0.73-0.43-0.73-1.09c0-0.36,0.63-0.59,1.02-0.62c0.12-0.56,0.29-0.73,0.29-1.4
		c0-0.67-0.87-0.5-0.87-2.02v-0.62c0-0.73,0.51-1.51,1.02-1.71v-0.78c-0.76-0.09-1.31-0.9-1.31-1.86c0-1.07,1.08-1.71,1.28-2.67
		C430.37,250.37,430.2,249.04,430.61,248.13z"/>
	<path class="st4" d="M432.93,359.52c0-1.84,2.55-12.6,3.05-13.36c0,2.22,0.09,4.64,0.01,6.84c-0.07,1.87-0.59,4.04-0.59,6.05
		c0.43,0.04,0.73,0.11,0.73,0.62v0.16c0,4.15-4.49,7.34-4.49,8.59c0,0.31,0.87,0.47,1.16,0.47c1.08,0,4.34-2.97,4.34-4.4v-0.78
		c0-0.68-0.29-0.56-0.29-1.24v-0.93c0-1.98,2.32-4.35,2.32-4.51c0-1.61-0.46-3.51-0.69-5.01c-0.25-1.65-1.2-3.23-1.2-4.78v-0.93
		L436.7,346l-0.07-1.56l-0.18-0.04l-0.43,1.15l-0.04-1.42c-1.67,0-1.7,1.9-3.05,2.02l-0.16,0.62l-0.15-0.3l-0.98,0.35l-0.02,2.75
		c0,1.62-0.97,4.18-1.63,5.09c-0.93,1.27-0.5,0.76-0.87,2.49c-0.19,0.91-0.55,1.62-0.55,2.83c1.17,0.1,0.78,1.73,1.89,1.86
		c0-1.88,0.58-5.34,0.85-7.16c0.18-1.2,0.63-2.23,0.73-3.25c0.13-1.29-0.23-2.66,0.3-3.56l-1.46,15.24l-0.13,1.07h0.29
		L432.93,359.52z"/>
	<path class="st4" d="M465.28,348.65c0.08-0.35,0.14-0.36,0.14-0.78v-4.04h0.29v-2.17c0-0.71-0.92-0.44-1.02-1.4
		c-0.41-0.04-0.58,0-0.58-0.47c0-0.86-0.1-2.09-0.45-3.09c-0.45-1.28-0.33-1.74-0.42-2.97l0.42-0.18l0.01-0.28l-0.67-0.53
		l-0.64-0.86v0.47l-0.23-0.03l-0.43-0.92l-0.42-1.87l-0.24,0.07l1.16,3.99l1.3,7.27l-0.15,0.05l0.26,0.46l0.36,2.47l0.27,0.78
		l0.47-0.15L465.28,348.65z"/>
	<path class="st4" d="M415.48,256.98l0.04,2.02c0.33-0.08,0.33-0.16,0.73-0.16h0.58v-7.92l-1.13,0L415.48,256.98z"/>
	<path class="st4" d="M461.07,323.17l-0.06-2.17c0.05-0.37,0.01-0.18-0.09-0.62c0.71,0.28,0.82,1.77,1.89,1.86
		c-0.22-1.02-0.74-0.82-1.28-1.89c-0.21-0.42-0.83-1.74-1.04-1.99l-0.32,0.17l-0.7-1.88c0,1.9,0.23,2.13,0.43,3.58
		C459.96,320.6,460.95,323.01,461.07,323.17z"/>
	<path class="st4" d="M450.34,289.77c1.11,1.71,1.29,4.42,2.61,5.9v-0.47h-0.29l-0.8-3.13l-0.07-0.6l0.69,1.11l-0.26-1.26l0.29,0
		c-0.63-1.01-1.45-0.9-1.45-3.11v-0.62h-0.29v0.78l-0.39-0.51L450.34,289.77z"/>
	<path class="st4" d="M430.03,354.24c0.38-1.51,1.45-2.7,1.45-5.13v-2.02h-0.58l-1.08,7.16L430.03,354.24z"/>
	<path class="st4" d="M479.06,359.37l0.61-0.75c-0.14-1.47-0.79-4.25-1.92-4.38l-0.15-0.62c0,1.3-0.39,2.45,0.35,3.2
		C478.84,357.72,479.06,357.58,479.06,359.37z"/>
	<path class="st4" d="M468.76,367.6l-0.18-1.7l0.03-0.47h0.29v-0.47h-0.29v-1.4h-0.29v0.62l-0.16-0.62l-0.41,0.18l-0.01-0.65
		l0.38,0.37c0.04-0.81-0.47-1.47-0.96-1.61c0.29-1.33-0.64-1.65-1.6-2.33h-0.44l1.74,2.36l-0.15,0.13h0.44l-0.16,0.07l0.97,2.43
		L468.76,367.6z"/>
	<path class="st4" d="M433.67,232.6l-0.46,0l-1.29,6.18l0.24,0.09l1.57-3.35c-0.09-0.27-0.23-0.42-0.23-0.9l-0.03-0.31L433.67,232.6
		z"/>
	<path class="st4" d="M462.09,330.94c0.07-0.91,0.29-0.32,0.29-0.93v-0.47l0.47-0.24l-0.9-0.15l-0.01-1.16l0.33,0.6l0.25,0.02
		l0.18-0.92l0.13,0.61l0.27,0l-0.18-1.08l0.47-0.01l-1.45-2.02l-0.14,3.88v1.09C461.8,330.67,461.87,330.67,462.09,330.94z"/>
	<path class="st4" d="M432.54,305.1c0.5,1.05,0.84,1.73,1.11,3h0.29l-0.71-4.01l-1.03-2.51C432.2,302.81,432.14,304.27,432.54,305.1
		z"/>
	<path class="st4" d="M466.59,261.34c0,0.35,0.11,0.34,0.29,0.62l-0.18,0.61l1.05,0.01c0.04-0.49,0.15-0.55,0.15-1.09v-0.62
		c0-0.61-0.11-1.15-0.29-1.55l-0.97,0.55L466.59,261.34z"/>
	<path class="st4" d="M477.9,287.28v0.62c1.48,0,2.45-0.45,3.05-1.4h-2.76L477.9,287.28z"/>
	<path class="st4" d="M430.03,260.09c0.77-0.07,0.87-1.65,0.87-2.49c0-0.49-0.36-0.53-0.73-0.62c-0.12,0.27-0.35,1.09-0.29,1.55
		L430.03,260.09z"/>
	<polygon class="st4" points="479.64,366.05 479.43,363.86 478.34,363.87 478.47,363.4 478.04,363.55 478.05,362.78 477.88,364.03 
		478.4,364.92 478.63,364.96 478.63,364.65 478.92,364.65 479.44,365.21 	"/>
	<polygon class="st4" points="428.09,367.85 428.14,367.29 427.04,366.57 427.01,368.88 	"/>
	<path class="st4" d="M430.61,248.13c0.26-0.32,1.06-1.61,1.16-2.02h-0.44v-0.31c-0.38,0.47-0.87,0.84-0.87,1.71
		C430.46,247.87,430.51,247.69,430.61,248.13z"/>
	<path class="st4" d="M477.9,287.28l0.29-0.78v-0.31h-0.73c-0.14,0.43-0.58,0.58-0.58,0.93c0,0.48,0.14,0.57,0.58,0.62
		c0.01-0.66-0.02-0.76,0.44-0.93V287.28z"/>
	<path class="st4" d="M427.34,365.25l0.94,0.02v-0.93c0-0.47-0.17-0.43-0.59-0.47L427.34,365.25z"/>
	<path class="st4" d="M422.34,281.22c0.45,0,0.87-0.14,0.87-0.62c0-0.36-0.41-0.3-0.73-0.31c-0.26,0.69-0.58,0.12-0.58,0.62
		C421.9,281.13,422.1,281.22,422.34,281.22z"/>
	<polygon class="st4" points="461.22,196.55 461.22,195.93 460.93,195.93 460.93,195.31 460.76,195.61 460.49,195.62 460.41,195.29 
		460.21,196.24 	"/>
</g>
<text transform="matrix(1 0 0 1 344.3865 416.4589)"><tspan x="0" y="0" class="st1 st5 st3">E</tspan><tspan x="13.28" y="0" class="st1 st5 st3">l regreso del Inka</tspan></text>
<text transform="matrix(1 0 0 1 399.9979 454.4599)"><tspan x="0" y="0" class="st1 st6 st7"> </tspan><tspan x="4.84" y="0" class="st1 st6 st7">Hemos vuelto</tspan></text>
</svg>
